{"title":"The Woman in Black (2012) DVDScr [MKV AC3][RoB]PR3DATOR RG","uid":7052026,"size":876744289,"categoryP":"video","categoryS":"movies","magnet":"?xt=urn:btih:7659a16d2ebae5ddecfe1a43d93ac03a3dbde4c7&amp;dn=The+Woman+in+Black+%282012%29+DVDScr+%5BMKV+AC3%5D%5BRoB%5DPR3DATOR+RG&amp;tr=udp%3A%2F%2Ftracker.openbittorrent.com%3A80&amp;tr=udp%3A%2F%2Fopen.demonii.com%3A1337&amp;tr=udp%3A%2F%2Ftracker.coppersurfer.tk%3A6969&amp;tr=udp%3A%2F%2Fexodus.desync.com%3A6969","seeders":1,"leechers":0,"uploader":"MScope40","files":-1,"time":1329989316,"description":"\nGeneral\nUnique ID : 168348648403719580577546155723716462494 (0x7EA6C532C2870C1E037BA147C20E879E)\nComplete name : THE WOMAN IN BLACK (2012) DVDScr [MKV AC3][RoB]PR3DATOR RG\nFormat : Matroska\nFormat version : Version 2\nFile size : 822 MiB\nDuration : 1h 28mn\nOverall bit rate : 1 302 Kbps\nWriting application : Lavf51.12.1\nWriting library : Lavf51.12.1\n\nVideo\nID : 1\nFormat : AVC\nFormat/Info : Advanced Video Codec\nFormat profile : &lt;a class=&quot;__cf_email__&quot; href=&quot;/cdn-cgi/l/email-protection&quot; data-cfemail=&quot;07456674626b6e6962474b352936&quot;&gt;[email&amp;#160;protected]&lt;/a&gt;&lt;script cf-hash='f9e31' type=&quot;text/javascript&quot;&gt;\n/* &lt;![CDATA[ */!function(){try{var t=&quot;currentScript&quot;in document?document.currentScript:function(){for(var t=document.getElementsByTagName(&quot;script&quot;),e=t.length;e--;)if(t[e].getAttribute(&quot;cf-hash&quot;))return t[e]}();if(t&amp;&amp;t.previousSibling){var e,r,n,i,c=t.previousSibling,a=c.getAttribute(&quot;data-cfemail&quot;);if(a){for(e=&quot;&quot;,r=parseInt(a.substr(0,2),16),n=2;a.length-n;n+=2)i=parseInt(a.substr(n,2),16)^r,e+=String.fromCharCode(i);e=document.createTextNode(e),c.parentNode.replaceChild(e,c)}}}catch(u){}}();/* ]]&gt; */&lt;/script&gt;\nFormat settings, CABAC : No\nFormat settings, ReFrames : 5 frames\nFormat settings, GOP : M=1, N=12\nCodec ID : V_MPEG4/ISO/AVC\nDuration : 1h 28mn\nBit rate : 1 116 Kbps\nWidth : 704 pixels\nHeight : 288 pixels\nDisplay aspect ratio : 2.40:1\nFrame rate mode : Variable\nFrame rate : 25.000 fps\nColor space : YUV\nChroma subsampling : 4:2:0\nBit depth : 8 bits\nScan type : Progressive\nBits/(Pixel*Frame) : 0.220\nStream size : 705 MiB (86%)\nLanguage : English\nDefault : Yes\nForced : No\n\nAudio\nID : 2\nFormat : AC-3\nFormat/Info : Audio Coding 3\nMode extension : CM (complete main)\nCodec ID : A_AC3\nDuration : 1h 28mn\nBit rate mode : Constant\nBit rate : 160 Kbps\nChannel(s) : 2 channels\nChannel positions : Front: L R\nSampling rate : 44.1 KHz\nBit depth : 16 bits\nCompression mode : Lossy\nStream size : 101 MiB (12%)\nLanguage : English\nDefault : Yes\nForced : No\n &lt;a href=&quot;\nhttp://img839.imageshack.us/img839/3592/vlcsnap2012022122h13m01.png&quot; rel=&quot;nofollow&quot; target=&quot;_NEW&quot;&gt;\nhttp://img839.imageshack.us/img839/3592/vlcsnap2012022122h13m01.png&lt;/a&gt;\n &lt;a href=&quot;\nhttp://img843.imageshack.us/img843/973/vlcsnap2012022122h13m08.png&quot; rel=&quot;nofollow&quot; target=&quot;_NEW&quot;&gt;\nhttp://img843.imageshack.us/img843/973/vlcsnap2012022122h13m08.png&lt;/a&gt;\n &lt;a href=&quot;\nhttp://img196.imageshack.us/img196/47/vlcsnap2012022122h13m16.png&quot; rel=&quot;nofollow&quot; target=&quot;_NEW&quot;&gt;\nhttp://img196.imageshack.us/img196/47/vlcsnap2012022122h13m16.png&lt;/a&gt;\n &lt;a href=&quot;\nhttp://img109.imageshack.us/img109/8183/vlcsnap2012022122h13m22.png&quot; rel=&quot;nofollow&quot; target=&quot;_NEW&quot;&gt;\nhttp://img109.imageshack.us/img109/8183/vlcsnap2012022122h13m22.png&lt;/a&gt;\n &lt;a href=&quot;\nhttp://img35.imageshack.us/img35/7069/vlcsnap2012022122h13m35.png&quot; rel=&quot;nofollow&quot; target=&quot;_NEW&quot;&gt;\nhttp://img35.imageshack.us/img35/7069/vlcsnap2012022122h13m35.png&lt;/a&gt;","torrent":{"xt":"urn:btih:7659a16d2ebae5ddecfe1a43d93ac03a3dbde4c7","amp;dn":"The+Woman+in+Black+%282012%29+DVDScr+%5BMKV+AC3%5D%5BRoB%5DPR3DATOR+RG","amp;tr":["udp%3A%2F%2Ftracker.openbittorrent.com%3A80","udp%3A%2F%2Fopen.demonii.com%3A1337","udp%3A%2F%2Ftracker.coppersurfer.tk%3A6969","udp%3A%2F%2Fexodus.desync.com%3A6969"],"infoHash":"7659a16d2ebae5ddecfe1a43d93ac03a3dbde4c7","infoHashBuffer":{"type":"Buffer","data":[118,89,161,109,46,186,229,221,236,254,26,67,217,58,192,58,61,189,228,199]},"announce":[],"urlList":[]}}